<mxfile host="app.diagrams.net" agent="Mozilla/5.0 (Windows NT 10.0; Win64; x64) AppleWebKit/537.36 (KHTML, like Gecko) Chrome/134.0.0.0 Safari/537.36" version="26.1.3">
  <diagram id="xj3_XEVX6p52dGllTa57" name="페이지-1">
    <mxGraphModel dx="1434" dy="780" grid="1" gridSize="10" guides="1" tooltips="1" connect="1" arrows="1" fold="1" page="1" pageScale="1" pageWidth="827" pageHeight="1169" math="0" shadow="0">
      <root>
        <mxCell id="0" />
        <mxCell id="1" parent="0" />
        <mxCell id="5GnrstCmYljinj3V4tNl-2" value="" style="group" vertex="1" connectable="0" parent="1">
          <mxGeometry x="90" y="105" width="840" height="480" as="geometry" />
        </mxCell>
        <mxCell id="Qmz7ziq61wn19Hz2vlnY-1" value="&lt;font style=&quot;font-size: 20px;&quot;&gt;&lt;b style=&quot;&quot;&gt;USER&lt;/b&gt;&lt;/font&gt;" style="rounded=1;whiteSpace=wrap;html=1;" parent="5GnrstCmYljinj3V4tNl-2" vertex="1">
          <mxGeometry x="40" y="20" width="760" height="40" as="geometry" />
        </mxCell>
        <mxCell id="Qmz7ziq61wn19Hz2vlnY-2" value="이야기 목록" style="rounded=1;whiteSpace=wrap;html=1;" parent="5GnrstCmYljinj3V4tNl-2" vertex="1">
          <mxGeometry x="40" y="80" width="200" height="40" as="geometry" />
        </mxCell>
        <mxCell id="Qmz7ziq61wn19Hz2vlnY-11" value="" style="edgeStyle=orthogonalEdgeStyle;rounded=0;orthogonalLoop=1;jettySize=auto;html=1;" parent="5GnrstCmYljinj3V4tNl-2" source="Qmz7ziq61wn19Hz2vlnY-3" target="Qmz7ziq61wn19Hz2vlnY-7" edge="1">
          <mxGeometry relative="1" as="geometry" />
        </mxCell>
        <mxCell id="Qmz7ziq61wn19Hz2vlnY-3" value="이야기 생성&lt;br&gt;(직접 작성, AI도움 작성)" style="rounded=1;whiteSpace=wrap;html=1;" parent="5GnrstCmYljinj3V4tNl-2" vertex="1">
          <mxGeometry x="280" y="80" width="200" height="40" as="geometry" />
        </mxCell>
        <mxCell id="Qmz7ziq61wn19Hz2vlnY-17" value="" style="edgeStyle=orthogonalEdgeStyle;rounded=0;orthogonalLoop=1;jettySize=auto;html=1;" parent="5GnrstCmYljinj3V4tNl-2" source="Qmz7ziq61wn19Hz2vlnY-4" target="Qmz7ziq61wn19Hz2vlnY-13" edge="1">
          <mxGeometry relative="1" as="geometry" />
        </mxCell>
        <mxCell id="Qmz7ziq61wn19Hz2vlnY-18" value="" style="edgeStyle=orthogonalEdgeStyle;rounded=0;orthogonalLoop=1;jettySize=auto;html=1;entryX=0.5;entryY=0;entryDx=0;entryDy=0;" parent="5GnrstCmYljinj3V4tNl-2" source="Qmz7ziq61wn19Hz2vlnY-4" target="Qmz7ziq61wn19Hz2vlnY-12" edge="1">
          <mxGeometry relative="1" as="geometry" />
        </mxCell>
        <mxCell id="Qmz7ziq61wn19Hz2vlnY-4" value="내 서재 확인" style="rounded=1;whiteSpace=wrap;html=1;" parent="5GnrstCmYljinj3V4tNl-2" vertex="1">
          <mxGeometry x="520" y="80" width="280" height="40" as="geometry" />
        </mxCell>
        <mxCell id="Qmz7ziq61wn19Hz2vlnY-5" value="카테고리 선택&lt;br&gt;(연령, 태그)" style="rounded=1;whiteSpace=wrap;html=1;" parent="5GnrstCmYljinj3V4tNl-2" vertex="1">
          <mxGeometry x="80" y="160" width="120" height="40" as="geometry" />
        </mxCell>
        <mxCell id="Qmz7ziq61wn19Hz2vlnY-6" value="책보기" style="rounded=1;whiteSpace=wrap;html=1;" parent="5GnrstCmYljinj3V4tNl-2" vertex="1">
          <mxGeometry x="80" y="240" width="120" height="40" as="geometry" />
        </mxCell>
        <mxCell id="Qmz7ziq61wn19Hz2vlnY-7" value="이미지 생성" style="rounded=1;whiteSpace=wrap;html=1;" parent="5GnrstCmYljinj3V4tNl-2" vertex="1">
          <mxGeometry x="320" y="160" width="120" height="40" as="geometry" />
        </mxCell>
        <mxCell id="Qmz7ziq61wn19Hz2vlnY-8" value="동화책 공유" style="rounded=1;whiteSpace=wrap;html=1;" parent="5GnrstCmYljinj3V4tNl-2" vertex="1">
          <mxGeometry x="320" y="240" width="120" height="40" as="geometry" />
        </mxCell>
        <mxCell id="Qmz7ziq61wn19Hz2vlnY-9" value="책보기" style="rounded=1;whiteSpace=wrap;html=1;" parent="5GnrstCmYljinj3V4tNl-2" vertex="1">
          <mxGeometry x="320" y="320" width="120" height="40" as="geometry" />
        </mxCell>
        <mxCell id="Qmz7ziq61wn19Hz2vlnY-12" value="책 조회" style="rounded=1;whiteSpace=wrap;html=1;" parent="5GnrstCmYljinj3V4tNl-2" vertex="1">
          <mxGeometry x="520" y="160" width="120" height="40" as="geometry" />
        </mxCell>
        <mxCell id="Qmz7ziq61wn19Hz2vlnY-13" value="내 목소리 학습" style="rounded=1;whiteSpace=wrap;html=1;" parent="5GnrstCmYljinj3V4tNl-2" vertex="1">
          <mxGeometry x="680" y="160" width="120" height="40" as="geometry" />
        </mxCell>
        <mxCell id="Qmz7ziq61wn19Hz2vlnY-14" value="도서 검색" style="rounded=1;whiteSpace=wrap;html=1;" parent="5GnrstCmYljinj3V4tNl-2" vertex="1">
          <mxGeometry x="520" y="240" width="120" height="40" as="geometry" />
        </mxCell>
        <mxCell id="Qmz7ziq61wn19Hz2vlnY-15" value="책보기" style="rounded=1;whiteSpace=wrap;html=1;" parent="5GnrstCmYljinj3V4tNl-2" vertex="1">
          <mxGeometry x="520" y="320" width="120" height="40" as="geometry" />
        </mxCell>
        <mxCell id="Qmz7ziq61wn19Hz2vlnY-16" value="책 삭제" style="rounded=1;whiteSpace=wrap;html=1;" parent="5GnrstCmYljinj3V4tNl-2" vertex="1">
          <mxGeometry x="520" y="400" width="120" height="40" as="geometry" />
        </mxCell>
        <mxCell id="5GnrstCmYljinj3V4tNl-1" value="" style="swimlane;startSize=0;" vertex="1" parent="5GnrstCmYljinj3V4tNl-2">
          <mxGeometry width="840" height="480" as="geometry" />
        </mxCell>
      </root>
    </mxGraphModel>
  </diagram>
</mxfile>
